<?xml version="1.0" encoding="UTF-8"?>
<svg width="80px" height="80px" viewBox="0 0 80 80" version="1.1" xmlns="http://www.w3.org/2000/svg" xmlns:xlink="http://www.w3.org/1999/xlink">
    <title>Icons/Membership/Friends</title>
    <g id="Icons/Membership/Friends" stroke="none" stroke-width="1" fill="none" fill-rule="evenodd">
        <g id="chat-" transform="translate(3.000000, 0.000000)">
            <path d="M29.4471875,73.555 L29.4471875,73.555 C29.4471875,66.0801563 23.3314063,59.9640625 15.85625,59.9640625 L15.85625,59.9640625 C8.38140625,59.9640625 2.2653125,66.0798437 2.2653125,73.555 L2.2653125,73.555 C2.2653125,75.8857812 4.15484375,77.7753125 6.485625,77.7753125 L25.2265625,77.7753125 C27.5578125,77.7753125 29.4471875,75.8857812 29.4471875,73.555 Z" id="Path" fill="#C0DEFB"></path>
            <g id="Group" transform="translate(0.000000, 37.656250)" fill="#037EF3">
                <path d="M25.226875,42.34375 L6.4859375,42.34375 C2.9321875,42.34375 0.0409375,39.4525 0.0409375,35.89875 C0.0409375,27.1779688 7.13578125,20.0832812 15.8564063,20.0832812 C24.5771875,20.0832812 31.6720313,27.178125 31.6720313,35.89875 C31.6720313,39.4525 28.7807813,42.34375 25.226875,42.34375 Z M15.8565625,24.5325 C9.58921875,24.5325 4.49046875,29.6310937 4.49046875,35.8984375 C4.49046875,36.99875 5.385625,37.8940625 6.48609375,37.8940625 L25.2270313,37.8940625 C26.3273437,37.8940625 27.2226562,36.9989062 27.2226562,35.8984375 C27.2226562,29.6314062 22.1239062,24.5325 15.8565625,24.5325 Z" id="Shape"></path>
                <path d="M15.85625,24.3684375 C9.16875,24.3684375 3.728125,18.9278125 3.728125,12.2403125 C3.728125,5.5528125 9.16875,0.1121875 15.85625,0.1121875 C22.54375,0.1121875 27.984375,5.5528125 27.984375,12.2403125 C27.984375,18.9278125 22.5439062,24.3684375 15.85625,24.3684375 Z M15.85625,4.561875 C11.6223438,4.561875 8.17765625,8.00640625 8.17765625,12.2404688 C8.17765625,16.4745313 11.6221875,19.9190625 15.85625,19.9190625 C20.0903125,19.9190625 23.5348438,16.4745313 23.5348438,12.2404688 C23.5348438,8.00640625 20.0904687,4.561875 15.85625,4.561875 Z" id="Shape"></path>
            </g>
            <path d="M73.6715625,73.555 L73.6715625,73.555 C73.6715625,66.0801563 67.5557812,59.9640625 60.080625,59.9640625 L60.080625,59.9640625 C52.6057812,59.9640625 46.4896875,66.0798437 46.4896875,73.555 L46.4896875,73.555 C46.4896875,75.8857812 48.3792188,77.7753125 50.71,77.7753125 L69.4509375,77.7753125 C71.7821875,77.7753125 73.6715625,75.8857812 73.6715625,73.555 Z" id="Path" fill="#C0DEFB"></path>
            <g id="Group" transform="translate(8.750000, 0.000000)" fill="#037EF3">
                <path d="M60.7014063,80 L41.9604687,80 C38.4067187,80 35.5154687,77.10875 35.5154687,73.555 C35.5154687,64.8342188 42.6103125,57.7395312 51.3309375,57.7395312 C60.0517188,57.7395312 67.1465625,64.834375 67.1465625,73.555 C67.1465625,77.10875 64.255,80 60.7014063,80 Z M51.330625,62.18875 C45.0632813,62.18875 39.9645312,67.2873437 39.9645312,73.5546875 C39.9645312,74.655 40.8596875,75.5503125 41.9601562,75.5503125 L60.7010938,75.5503125 C61.8014062,75.5503125 62.6967188,74.6551563 62.6967188,73.5546875 C62.6967188,67.2876562 57.598125,62.18875 51.330625,62.18875 Z" id="Shape"></path>
                <path d="M51.330625,62.0246875 C44.643125,62.0246875 39.2025,56.5840625 39.2025,49.8965625 C39.2025,43.2090625 44.643125,37.7684375 51.330625,37.7684375 C58.018125,37.7684375 63.45875,43.2090625 63.45875,49.8965625 C63.45875,56.5840625 58.018125,62.0246875 51.330625,62.0246875 Z M51.330625,42.218125 C47.0967188,42.218125 43.6520313,45.6626563 43.6520313,49.8967188 C43.6520313,54.1307813 47.0965625,57.5753125 51.330625,57.5753125 C55.5646875,57.5753125 59.0092188,54.1307813 59.0092188,49.8967188 C59.0092188,45.6626563 55.5648438,42.218125 51.330625,42.218125 Z" id="Shape"></path>
                <path d="M47.3689062,35.2816947 C46.5795312,35.2816947 45.809375,34.979375 45.2160937,34.4085938 L37.7696875,27.2434375 C36.8842188,26.3914063 36.8570312,24.983125 37.7092187,24.0976563 C38.56125,23.2121875 39.9695313,23.185 40.855,24.0371875 L46.3603125,29.3346875 L46.8160937,25.3853125 C46.9457812,24.2626562 47.89625,23.4154688 49.0260937,23.4154688 L53.9345312,23.4154688 L53.9345312,4.44953125 L4.50265625,4.44953125 L4.50265625,23.415625 L9.41109375,23.415625 C10.5410937,23.415625 11.4917188,24.2628125 11.6210938,25.3854688 L12.076875,29.3348438 L17.5823437,24.0373438 C18.4678125,23.1854688 19.8760937,23.2126563 20.728125,24.0978125 C21.58,24.9829688 21.553125,26.3915625 20.6676563,27.2435938 L13.22125,34.40875 C12.3615625,35.235625 11.1304687,35.4990625 10.0076562,35.0957813 C8.885,34.6925 8.10265625,33.7057813 7.96609375,32.5209375 L7.42859375,27.8653125 L4.1628125,27.8653125 C1.89671875,27.8653125 0.05328125,26.021875 0.05328125,23.7559375 L0.05328125,4.10953125 C0.05328125,1.8434375 1.89671875,0 4.1625,0 L54.274375,0 C56.5404687,0 58.3839062,1.8434375 58.3839062,4.10953125 L58.3839062,23.755625 C58.3839062,26.0217188 56.5404687,27.8651563 54.274375,27.8651563 L51.0084375,27.8651563 L50.4709375,32.5207812 C50.3340625,33.705625 49.551875,34.6923437 48.429375,35.095625 C48.081875,35.220625 47.7234375,35.2816947 47.3689062,35.2816947 Z" id="Path"></path>
                <path d="M30.47,27.865 L27.9676563,27.865 C26.7389062,27.865 25.7429687,26.8690625 25.7429687,25.6403125 C25.7429687,24.4115625 26.7389062,23.415625 27.9676563,23.415625 L30.47,23.415625 C31.69875,23.415625 32.6946875,24.4115625 32.6946875,25.6403125 C32.6945313,26.8689062 31.6984375,27.865 30.47,27.865 Z" id="Path"></path>
            </g>
        </g>
    </g>
</svg>