<?xml version="1.0" encoding="UTF-8"?>
<svg width="80px" height="80px" viewBox="0 0 80 80" version="1.1" xmlns="http://www.w3.org/2000/svg" xmlns:xlink="http://www.w3.org/1999/xlink">
    <title>Icons/Membership/Potential</title>
    <g id="Icons/Membership/Potential" stroke="none" stroke-width="1" fill="none" fill-rule="evenodd">
        <g id="mountain" transform="translate(1.000000, 3.000000)">
            <path d="M52.7151562,5.06453125 C52.7151562,4.90484375 52.6985937,4.7490625 52.6714062,4.5971875 L58.2010937,2.6146875 C59.5692187,2.13671875 61.0754687,2.28265625 62.326875,3.01125 L65.7504687,5.00890625 C67.2075,5.85921875 68.998125,5.9071875 70.4992187,5.1378125 L74.1989062,3.24296875 C74.7746875,2.9490625 75.4590625,2.97453125 76.008125,3.31125 C76.5595312,3.64640625 76.8942187,4.24515625 76.8942187,4.88921875 L76.8942187,18.58875 C76.8942187,19.2828125 76.50375,19.9192187 75.8873437,20.235625 L70.4992187,22.9951562 C68.9982812,23.7645312 67.2075,23.71625 65.7504687,22.8659375 L62.326875,20.86875 C61.0759375,20.1401562 59.5692187,19.9946875 58.2010938,20.4717187 C58.2010938,20.4717187 53.7864062,21.75125 52.715,21.6789062 L52.715,5.06453125 L52.7151562,5.06453125 Z" id="Path" fill="#C0DEFB"></path>
            <g id="Group" fill="#037EF3">
                <path d="M68.2428125,25.7801563 C66.97125,25.7801563 65.7190625,25.4415625 64.6214063,24.8010937 L61.1979687,22.8040625 C60.5220312,22.4101562 59.6804687,22.3290625 58.93875,22.5871875 C58.9010937,22.6004687 58.8632812,22.6123437 58.825,22.6234375 C57.4779687,23.0139062 54.1953125,23.9225 52.8107812,23.9225 C52.7220312,23.9225 52.6398437,23.919375 52.5639062,23.914375 C51.3876562,23.8348437 50.474375,22.8575 50.474375,21.67875 L50.474375,5.06453125 C50.474375,5.05875 50.47375,5.03609375 50.4659375,4.99125 C50.27375,3.91484375 50.8860938,2.85703125 51.9153125,2.488125 L57.445,0.505625 C58.2265625,0.2325 59.024375,0.0971875 59.8334375,0.0971875 C61.1035938,0.0971875 62.3559375,0.4353125 63.454375,1.075 L66.8798437,3.07375 C67.6614062,3.5296875 68.6707813,3.5575 69.4771875,3.14390625 L73.1776562,1.24859375 C73.7548437,0.95375 74.399375,0.7984375 75.0439062,0.7984375 C75.798125,0.7984375 76.5365625,1.006875 77.179375,1.40078125 C78.3825,2.13203125 79.135,3.47046875 79.135,4.88890625 L79.135,18.5884375 C79.135,20.1296875 78.2825,21.5245312 76.9103125,22.22875 L71.5207812,24.98875 C70.5117188,25.5067187 69.378125,25.7801563 68.2428125,25.7801563 Z M59.8328125,17.9546875 C61.1039063,17.9546875 62.3564063,18.2928125 63.4546875,18.9326562 L66.8796875,20.930625 C67.6620313,21.3870312 68.6714063,21.4145312 69.4771875,21.00125 L74.6539063,18.3501562 L74.6539063,5.52765625 L71.5210938,7.1321875 C70.5117188,7.6496875 69.3779688,7.92328125 68.2429688,7.92328125 C66.9714063,7.92328125 65.7192188,7.5846875 64.6217188,6.94421875 L61.198125,4.9465625 C60.5223438,4.55328125 59.6810938,4.47140625 58.9404688,4.73015625 L54.9560938,6.15875 L54.9560938,19.0176562 C55.7828125,18.8164062 56.7140625,18.5690625 57.52625,18.3345312 C58.2704687,18.0823437 59.0464062,17.9546875 59.8328125,17.9546875 Z" id="Shape"></path>
                <path d="M52.5615625,32.3371875 C51.324375,32.3371875 50.3209375,31.3339062 50.3209375,30.0965625 L50.3209375,4.65546875 C50.3209375,3.41828125 51.3242188,2.41484375 52.5615625,2.41484375 C53.79875,2.41484375 54.8021875,3.418125 54.8021875,4.65546875 L54.8021875,30.0965625 C54.8020312,31.3339062 53.79875,32.3371875 52.5615625,32.3371875 Z" id="Path"></path>
                <path d="M73.4635938,73.9651562 L6.5415625,73.9651562 C4.23890625,73.9651562 2.150625,72.7896875 0.95578125,70.8207812 C-0.239375,68.85125 -0.31828125,66.455625 0.74515625,64.4123437 L24.7179688,18.3965625 C25.4376562,17.0154688 26.851875,16.1575 28.409375,16.1575 L28.4095313,16.1575 C29.9670313,16.1575 31.38125,17.015625 32.100625,18.3967187 L52.7290625,57.9975 C53.300625,59.095 52.8742187,60.4482812 51.7770313,61.0198437 C50.6795313,61.5915625 49.32625,61.1648437 48.7546875,60.0678125 L28.409375,21.01 L4.7196875,66.481875 C4.2384375,67.4067187 4.60609375,68.1984375 4.78671875,68.4957812 C4.96703125,68.7928125 5.4990625,69.4840625 6.54171875,69.4840625 L73.4639063,69.4840625 C74.574375,69.4840625 75.1,68.7254687 75.2745313,68.3992187 C75.4489063,68.0729687 75.7882813,67.2146875 75.171875,66.2907812 L52.5464063,32.3865625 L50.240625,35.8417187 C49.5535938,36.8710938 48.1625,37.148125 47.133125,36.461875 C46.10375,35.7748437 45.82625,34.38375 46.5129688,33.354375 L50.6825,27.10625 C51.098125,26.4834375 51.7976563,26.109375 52.54625,26.109375 C53.2948438,26.109375 53.994375,26.4832812 54.41,27.10625 L78.8990625,63.8034375 C80.239375,65.8123437 80.3648438,68.3829687 79.2257813,70.5126562 C78.0867188,72.6423437 75.8785938,73.9651562 73.4635938,73.9651562 Z" id="Path"></path>
            </g>
            <path d="M16.2051563,39.585625 L14.6365625,42.5051562 L28.2292187,35.6121875 L41.821875,42.5051562 L39.5810937,37.6071875 L30.11375,19.431875 C29.395625,18.0534375 27.4234375,18.0532812 26.7051562,19.4317187 L16.2051563,39.585625 Z" id="Path" fill="#C0DEFB"></path>
            <path d="M14.6371875,44.7457812 C14.0471875,44.7457812 13.465625,44.5129687 13.0334375,44.0704687 C12.3496875,43.37 12.1995313,42.306875 12.6628125,41.4445312 L14.2245313,38.5379687 L24.718125,18.39625 C25.4378125,17.0151563 26.8520313,16.1571875 28.4095313,16.1571875 C29.9670313,16.1571875 31.3814063,17.0153125 32.1010938,18.3967188 L41.5684375,36.571875 C41.5860938,36.6057812 41.6029688,36.6401562 41.6189063,36.675 L43.80125,41.4451562 C43.9709375,41.760625 44.0671875,42.1215625 44.0671875,42.5046875 C44.0671875,43.7359375 43.0739062,44.7354687 41.845,44.7453125 C41.4964062,44.74625 41.1373437,44.6698437 40.8089063,44.503125 L28.2295313,38.1239062 L15.65,44.503125 C15.328125,44.6664062 14.9810938,44.7457812 14.6371875,44.7457812 Z M28.2292188,33.3717187 C28.5767188,33.3717187 28.9242188,33.4523437 29.2426562,33.6139062 L37.0323438,37.5640625 L28.409375,21.01 L19.91375,37.3170312 L27.2160937,33.6140625 C27.534375,33.4523437 27.8817188,33.3717187 28.2292188,33.3717187 Z" id="Shape" fill="#037EF3"></path>
        </g>
    </g>
</svg>