<svg xmlns="http://www.w3.org/2000/svg" width="333" height="357.642" viewBox="0 0 500 537">
  <metadata><?xpacket begin="﻿" id="W5M0MpCehiHzreSzNTczkc9d"?>
<x:xmpmeta xmlns:x="adobe:ns:meta/" x:xmptk="Adobe XMP Core 5.6-c142 79.160924, 2017/07/13-01:06:39        ">
   <rdf:RDF xmlns:rdf="http://www.w3.org/1999/02/22-rdf-syntax-ns#">
      <rdf:Description rdf:about=""/>
   </rdf:RDF>
</x:xmpmeta>
                                                                                                    
                                                                                                    
                                                                                                    
                                                                                                    
                                                                                                    
                                                                                                    
                                                                                                    
                                                                                                    
                                                                                                    
                                                                                                    
                                                                                                    
                                                                                                    
                                                                                                    
                                                                                                    
                                                                                                    
                                                                                                    
                                                                                                    
                                                                                                    
                                                                                                    
                                                                                                    
                           
<?xpacket end="w"?></metadata>
<defs>
    <style>
      .cls-1 {
        fill: #c1defb;
      }

      .cls-1, .cls-2 {
        fill-rule: evenodd;
      }

      .cls-2 {
        fill: #fff;
      }
    </style>
  </defs>
  <path id="Color_Fill_4" data-name="Color Fill 4" class="cls-1" d="M417,281a158.467,158.467,0,0,0-19,1c-1.546,2.156-4.8,3.661-6,6-3.638,7.117-1,33.761-1,44V433H349V320c0-14.476,3.1-34.349-8-38-3.391-2.486-14.643-1.12-20-1-0.031-2.7-.049-4.63,1-6,2.053-7.063,10.042-11.481,14-17,3.148-4.388,4.854-8.611,8-13,3.239-4.519,8.733-8.445,12-13,4.612-6.43,5.987-13.836,17-14,6.408,10.633,15.976,19.207,23,29,3.149,4.39,4.861,8.6,8,13C408.671,266.543,416.093,270.605,417,281ZM273,335h40v98H273V335Zm-76,32h42c0.1,21.05,2.669,46.81-1,66l-3,1c-3.968,2.848-30.67,1.1-38,1V367Zm-78,34h44v34c-13.549.1-30.147,1.29-42-1l-1-3C117.526,427.577,118.9,407.235,119,401Z"/>
  <path id="Color_Fill_3" data-name="Color Fill 3" class="cls-2" d="M188,92c27.71-.319,51.943,25.186,39,54-2.5,5.555-9.032,12.762-14,16-3.382,2.2-7.506,1.983-10,5h-1v1h1l10,6c7.076,6.236,15.3,24.448,26,25,7.093-5.463,26.874-5.907,34-1,3.161,2.177,4.3,7.283,7,10,2.1,29.73-13.35,26.065-36,33-5.128,1.57-14.223,6.267-22,4-10.021-2.921-12.39-12.667-19-15v1c-2.774,3.543-3.837,12.463-4,18,10.954,2.218,32.8,9.235,38,17,4.634,6.914,4,18.458,4,30,0,17.77,2,35.332,0,52a43.945,43.945,0,0,0-8,6c-11.271-.115-26.272-0.071-35-2-1.471-2.337-4.135-4.152-5-7V299c-14.574-7.176-54.442-12.224-59-27-7.481-8.727.7-44.228,1-58h-2q-0.5,1-1,2c-4.367,5.434-4.753,20.048-8,27-2.435,5.215-8.187,7.161-12,11l-10,1c-8.1-2.095-22.139-10.466-19-23,1.74-6.947,4.811-15.47,7-22,2.374-7.081,2.079-13.224,5-20,4.052-9.4,12.634-9.828,21-15,14.826-9.166,25.785-15.406,51-15v-2c-16.556-10.444-14.684-46.091,0-57a59.941,59.941,0,0,1,12-7C182.281,92.757,185.567,93.747,188,92Zm-1,13c-0.908.738-3.1,1.248-4,2-28.55,6.5-14.961,59.935,18,47C226.814,143.869,221.264,103.966,187,105Zm-38,91q-2,24.5-4,49c-0.2,4.949-3.085,15.567,0,20,3.155,8.942,32.945,15.274,43,19,6.38,2.364,12.828,1.514,15,8,2.75,2.908,2,9.32,2,15q0.5,16.5,1,33a20.405,20.405,0,0,0,7,1c3.466-2.593,10.33-.245,15,0,3.749-10.767,1.068-35.642,1-49-4.832-6.726,2.46-16.421-6-22-8.218-5.42-32.925-5.923-36-15-2.753-3.184-1.576-10,0-15l10-39h1v1c4.621,3.121,6.712,8.476,10,13,4.278,5.886,10.164,11.541,15,17,16.312,0.316,28.3-5.932,42-9,2.927-4.615,5.325-12.753-2-15-6.65-4.675-23.353,6.44-33,3-11.919-4.25-16.246-21.031-26-28-11.045-7.891-44.566-14.305-63-8-7.01,2.4-13.275,7.425-19,11-4.939,3.084-10.811,3.229-14,8-3.73,4.539-11.6,34.544-12,43,3.991,2.835,4.589,4.932,12,5,1.718-2.616,4.676-4.931,6-8,2.608-6.044,1.676-12.235,4-19C122.029,203.271,133.108,195.947,149,196Zm218,8c2.667,0.2,5.417.685,7,2,7.471,2.4,10.774,11.158,15,17l4,3c7.6,10.458,14.424,20.523,22,31,1.751,2.422,5.241,4.535,7,7,3.177,4.453,9.3,13.368,5,19a12.945,12.945,0,0,1-8,9c-5.513,1.895-14.293-1.517-17,3-2.653,3.869-1,24.3-1,31v81c0,14.243,3.167,32.521-8,36-2.888,2.46-10.345,2.515-16,2-10.986-1-24.923.3-35-2-1.841-2.935-4.915-5.292-6-9V293a12.554,12.554,0,0,0-4-1c-4.081,3.14-12.448-.116-16-1-2.73-3.83-10.093-8.9-7-18,2.724-8.012,12.258-14.382,17-21,6.819-9.517,13.115-18.532,20-28l4-3c3.672-5.034,6.862-11.606,12-15C363.659,204.9,365.626,205.168,367,204Zm48,76c-0.154-2.351-.1-2.822-1-4-1.424-5.07-5.368-7.33-8-11-3.374-4.7-5.634-9.289-9-14l-3-2c-1.1-1.527-1.827-4.669-3-6-3.443-3.906-7.941-7.736-11-12-3.421-4.769-4.428-11.316-12-12-1.084,1.562-1.76.795-3,2v2h-2c-2.64,2.877-3.708,6.791-6,10-2.091,2.928-5.647,5.328-8,8-1.175,1.335-1.9,4.466-3,6l-3,2c-3.365,4.709-5.619,9.3-9,14-3.983,5.532-10.72,7.586-12,16,4.831,1.711,13.55,1.067,20,1,1.092,0.93.155,0.355,2,1,1.52,2.414,3,2.874,4,6,4.039,4.889,2,29.728,2,39V431c9.724,3.4,27.3,1.072,39,1,3.831-11.119,1-30.827,1-44V290c1.151-1.322,1.536-2.9,2-5C399.3,280.48,402.426,279.885,415,280Zm-276,8c14.392,5.331,32.713,7.528,43,17,0.258,10.583-2.686,18.136-5,26-3.125,10.62-4.155,21.307-7,31-2.415,8.231-1.307,19.336-8,23-5.982,3.275-35.919,1.119-41-1a15.958,15.958,0,0,0-3-4c-0.189-10.021,2.783-17.452,5-25,3.473-11.823,4.786-24.056,8-35C134.305,308.746,133.973,297.017,139,288Zm-7,85h23v-2c4.055-5.434,2.862-14.68,5-22,3.393-11.619,7.985-25,9-38l-3-1c-2.246-1.824-16.793-5.756-18-5-2.079,1.618-1.932,2.225-2,6-4.06,5.427-2.86,14.685-5,22C137.458,345.11,132.476,358.844,132,373Zm140-51c15.39-.113,35.311-0.658,48,2l5,6c0.084,35.664,2.665,75.108-1,109a43.945,43.945,0,0,0-8,6c-16.829.142-37.309,1.024-51-2-6.958-12.168-4.033-25.049-4-42,0.048-24.679-3.327-52.1,1-73l6-5C270.351,322.846,270.822,322.9,272,322Zm3,14c-2.669,7.724-1,21.458-1,31v66c8.944,3.129,25.135,1.072,36,1,1.092-.93.155-0.355,2-1l1-3c3.066-4.35,1-18.488,1-25V337C304.276,333.6,286.7,335.928,275,336Zm-80,19c16.529-.141,36.6-0.962,50,2,1.521,2.461,4.113,4.954,5,8v22c0,17.47,1.165,38.683-2,53l-7,5H229c-12.615.006-26.947,0.261-38-1l-6-7V383c0-6.441-1.59-17.365,1-22C187.7,357.949,192.394,357.237,195,355Zm4,13c-1.783,5.141-1,14.23-1,21v44c8.944,3.129,25.135,1.072,36,1,1.092-.93.155-0.355,2-1l1-3c2.193-3.089,1-12.1,1-17V369h-1v-1H199Zm-81,20c16.68-.14,37.515-1.256,51,2l5,7c2.323,6.936-.237,35.37-1,42l-5,4c-3.074,2.6-9.283,2-15,2-12.609.006-26.956,0.309-38-1l-4-5c-4.426-5.213-1.973-36.917-1-45A56.075,56.075,0,0,0,118,388Zm3,14c-2.557,7.074-1.449,22.794,0,30l3,1c3.9,2.8,29.806,1.1,37,1,2.683-7.647,1.07-21.523,1-31C151.755,399.423,133.257,401.927,121,402Z"/>
</svg>
