<svg xmlns="http://www.w3.org/2000/svg" width="333" height="357.642" viewBox="0 0 500 537">
  <metadata><?xpacket begin="﻿" id="W5M0MpCehiHzreSzNTczkc9d"?>
<x:xmpmeta xmlns:x="adobe:ns:meta/" x:xmptk="Adobe XMP Core 5.6-c142 79.160924, 2017/07/13-01:06:39        ">
   <rdf:RDF xmlns:rdf="http://www.w3.org/1999/02/22-rdf-syntax-ns#">
      <rdf:Description rdf:about=""/>
   </rdf:RDF>
</x:xmpmeta>
                                                                                                    
                                                                                                    
                                                                                                    
                                                                                                    
                                                                                                    
                                                                                                    
                                                                                                    
                                                                                                    
                                                                                                    
                                                                                                    
                                                                                                    
                                                                                                    
                                                                                                    
                                                                                                    
                                                                                                    
                                                                                                    
                                                                                                    
                                                                                                    
                                                                                                    
                                                                                                    
                           
<?xpacket end="w"?></metadata>
<defs>
    <style>
      .cls-1 {
        fill: #037ef3;
      }

      .cls-1, .cls-2 {
        fill-rule: evenodd;
      }

      .cls-2 {
        fill: #c0defb;
      }
    </style>
  </defs>
  <path id="Color_Fill_1" data-name="Color Fill 1" class="cls-1" d="M182,90h20v2c8.555,1.548,14.058,6.769,19,12l2,1v2l2,1v2l2,1q0.5,2.5,1,5l2,1v5h1q-0.5,10.5-1,21l-2,1q-0.5,2.5-1,5l-2,1v2l-2,1v2l-2,1-4,5h-2q-0.5,1-1,2h-2q-0.5,1-1,2h-2v1h-4v1h-1v1c8.262,0.946,14.97,10.393,19,16l4,3v2l3,2v2l2,1c3.5,3.569,1.989,2.933,9,3,2.453-2.5,4.281-.843,8-2v-1h4v-1h3v-1c6.934-2.112,19.918,6.028,22,9v2l2,1v3l2,1v15c-1.813,1.568-.856,1.993-2,4h-1v2l-4,3-1,2h-2l-1,2h-3l-1,2h-5v1h-5v1h-2v1h-4v1h-3v1h-5v1h-5v1h-2v1H218c-1.652-2.482-3.576-2.27-6-4v-1l-4-3v-2l-3-2v-2h-1q-0.5,2.5-1,5h-1q-0.5,5.5-1,11c1.135,0.844.145-.127,1,1,5.6,0.027,6.4,1.68,10,3h4v1h2v1h4v1l4,1v1h3l1,2h2v1l3,1a8,8,0,0,0,2,4h1v2l2,1c1.281,2.119-.018,4.249,1,7h1v2h1v71c-2.436,1.539-.624,1.237-2,3l-2,1v1h-3v1c4.627-.016,7.355.135,10,2l1,2,2,1v2l2,1v76c-2.458,1.561-.645.848-2,3h-1v2h-1v1c-2.25,1.952-1.842-1.082-3,3H191v-2c-3.78-.887-3.211-2.21-5-5l-2-1v-5c-2.549-2.892-1-14.081-1-19,0-18.015.456-37.54,1-54,3-2.007.534-1.1,2-3l2-1v-1h2l1-2h8v-1c-8.171-.877-7.312-9.864-7-19h-1v-6h1v-1c-1.531-7.426-1.123-18.929-1-28l-17-4-1-2h-5l-1-2h-4v-1h-4v-1h-2v-1h-4v-1h-2v-1l-6-1-1-2h-3v-1a8.955,8.955,0,0,0-4-2v-2h-2q-0.5-2-1-4h-2c-0.431-4.021-2.047-7.625-3-11q0.5-7.5,1-15h1V238h1v-7s1.307,0.058,1-2h-1v-6h1q0.5-3.5,1-7h-1v1c-3.179,3.4-.342,6.39-2,11h-1v2h-1v4h-1v2h-1v3h-1v3h-1v2h-1v2l-5,6h-2q-0.5,1-1,2h-3q-0.5,1-1,2H98c-2.445-3.535-1.757-.354-5-2l-1-2H90l-2-3H87v-2l-2-1-1-3H82V224h2l3-13h1v-5l2-1v-5h1v-2h1v-3h1v-5l2-1v-3l2-1v-2l11-7h3q0.5-1,1-2l4-1q0.5-1,1-2l3-1v-1l4-1q0.5-1,1-2l6-1q0.5-1,1-2h4q0.5-1,1-2h5v-1l12-1v-1c3.526-1.02,7.723.967,10-1l-3-2v-2l-3-2q-0.5-2.5-1-5h-1v-2h-1v-4h-1q-0.5-3-1-6h1q-0.5-6-1-12h1v-2h1v-4h1q1-3,2-6l2-1q0.5-2,1-4h2c0.705-3.087,1.949-4.254,5-5V98c5.431-1.132,7.276-4.645,14-6V90Zm7,16v1l-7,1v1c-3.817.858-9.435,5.992-11,9q-0.5,3.5-1,7h-1q-0.5,3.5-1,7h1v3h1v5h1c1.867,8.17,11.3,13.055,22,13h6v-1h3q0.5-1,1-2l4-1,6-7v-3l2-1v-7h1v-2h-1v-7l-2-1q-0.5-2.5-1-5l-2-1C205.167,109.849,199.1,105.854,189,106ZM98,238c4.466,1.265,8.383,5.344,12,0h1v-4l2-1q0.5-4,1-8h1v-3h1v-6h1v-3h1v-2h1v-2l2-1v-2h1a8.2,8.2,0,0,0,2-4l3-1v-1h2v-1h2q0.5-1,1-2h4q0.5-1,1-2l14-1q-0.5,9.5-1,19h-1v14h-1v6h-1v13c-0.884,3.095-3.754,12.944-2,18h1q0.5,2,1,4l3,1v1l5,1v1l8,1,1,2h4v1h3v1h3v1h4l1,2h5v1h4v1h2v1h4v1h3l7,5v2l2,1c1.618,3.114,1,10.367,1,15v32h21q-1-32-2-64l-3-2v-1h-2l-1-2-8-1-1-2h-4v-1h-2v-1h-4v-1h-4v-1h-2v-1h-4l-1-2h-2l-1-2h-1v-2l-2-1V245c3.033-2.833.7-3.741,2-8h1v-5h1v-3h1v-5h1v-3h1v-5h1v-6h1v-2h1q0.5-4.5,1-9h4c1.192,2.213,2.33,2.988,3,6h2v2c2.682,1.84,3.09,4.342,5,7l5,4q0.5,1.5,1,3l2,1v2l3,2v2l2,1v1h2c5.2,2.529,5.24-.191,9-1l9-1v-1h2v-1l10-1v-1h2v-1h5v-1l4-1c0.789-3.229,1.856-3.449,2-8l-2-1-1-3H254v1h-4v1h-3v1c-5.992,1.984-14.217.587-20,0l-7-8-2-1v-2l-3-2v-2l-3-2v-2l-12-11h-2v-1h-3v-1h-2v-1l-9-1v-1h-2v-1h-7v-1H162v-1l-19,2q-0.5,1-1,2h-5v1h-2q-0.5,1-1,2h-3q-0.5,1-1,2h-3l-2,3h-2v1h-2q-0.5,1-1,2c-4.249,2.665-8.253,1.434-11,6h-1q-1,5-2,10h-1v5l-2,1q-0.5,4.5-1,9h-1v2h-1v5H99Zm333,35c0.11,3.1.47,7.411-1,9-0.883,3.575-5.966,9.792-9,11l-10,1v1c-2.752.787-5.54-.53-7-1v1c-1.8,2.081-1,8.273-1,12V408c0,7.887,1.665,24.312-1,30l-2,1v2h-1l-2,3h-2l-1,3H344v-2l-4-1v-2h-2l-1-4-2-1,1-2h-1v-4h-1q0.5-21,1-42V379h-1V302h1v-9h-1c-2.549,2.606-8.793,2.112-14,2-2.163-3-1.038-.514-4-2v-1h-2l-2-3h-1v-2l-2-1v-3h-1v-2h-1c-0.969-2.808.22-7.338,1-9h1v-3l3-2v-2l7-6v-2l3-2v-2l3-2v-2l2-1v-2h1a8.224,8.224,0,0,0,2-4h2a7.8,7.8,0,0,1,2-4h1l1-3,2-1v-2l4-3v-2l3-2v-2l3-2v-2l3-2v-2c1.855-2.588,3.782-1.665,5-6h2v-2h2v-2l4-1v-1l12,1,6,7,2,1v2l2,1,1,3,4,3v2l3,2v2l3,2v2l3,2v2l4,3v2l3,2v2l3,2v2l3,2v2l4,3v2l3,2v2l3,2v2l3,2v2l2,1C429.733,272.391,426.926,271.815,431,273Zm-15,6v-2c-3.008-1.988-.433-0.882-2-3l-4-3v-2l-3-2v-2l-3-2v-2l-2-1-1-3-4-3v-2l-3-2v-2l-3-2v-2l-3-2v-2l-4-3v-2l-3-2v-2l-3-2v-2l-2-1-1-3h-1c-1.438-1.747-2.286-2.413-3-5h-3c-0.674,1.275-1.562,1.351-2,2v2l-3,2v2l-4,3v2l-2,1-1,3-4,3v2l-3,2v2l-4,3v2l-3,2v2l-3,2v2l-3,2v2l-3,2v2l-3,2v2l-3,2-5,6c0.574,2.01-.12.865,1,2,4.165,3.648,11.042-1.843,17,0v1l5,1,2,3h1v2h1v4h1q-0.5,20-1,40v50h1q-0.5,26-1,52a10.6,10.6,0,0,0,4,1c1.793-1.615,6.656-1,10-1,8.541-.007,17.913.243,25,1,1.315-3.609,1-9.885,1-15V290h1l1-5,7-5Zm-280,7,6,1v1h4v1h3v1h3v1h4v1h2v1l8,1v1h2v1h5v1h2v1h3l4,5h1v4c0.9,1,.879,8.607,0,11h-1v2h-1v6h-1v5h-1v3h-1v5h-1v3h-1q-0.5,5.5-1,11h-1v2h-1v6h-1v3h-1q-0.5,5.5-1,11h-1v2h-1v4h-1a9.474,9.474,0,0,0-2,4l-3,1v1c6.019-.009,5.977,1.88,10,3a9.177,9.177,0,0,0,2,4h1v4h1v37h-1v4c-0.355.768-1.26,0.049-2,3h-2c-0.723,2.762-.279,2.237-3,3v2H115c-1.238-4.058-.745-1.076-3-3v-1h-1v-2l-2-1v-2h-1V395l2-1q0.5-2,1-4l3-1v-1h2v-1h6v-1l-3-1-1-3h-1v-2h-1c-0.888-2.46,1.351-12.193,2-14h1v-7l2-1v-6h1v-6h1v-2h1v-6h1v-2h1v-6h1v-6h1v-2h1v-5h1v-4h1v-4h1v-6h1v-3h1Q135,293,136,286Zm12,20a112.762,112.762,0,0,1-4,16v6h-1v2h-1v5h-1v4h-1l1,2h-1v2h-1v6h-1v2h-1v6h-1v3h-1l1,3h-1v2h-1v5c-0.01.031-.607-0.056-1,2h21a162.869,162.869,0,0,1,6-25q0.5-5.5,1-11h1v-2h1v-6h1v-2h1q0.5-5.5,1-11h1q0.5-2,1-4h-6l-1-2h-4ZM324,442h-2v2c-2.762.723-2.237,0.279-3,3-16.638,0-39.834-1.548-53,0-0.714-2.594-1.566-3.242-3-5h-1v-2l-2-1v-2h-1V331h1v-3h1l1-3c2.762-.723,2.237-0.279,3-3l7-1v-1l27,1,15-1v1h3v1h3l2,3c2.48,2.436,3.714,1.964,4,7,2.294,2.6,1,22.5,1,28v75h-1v4C325.641,439.774,324.744,439.05,324,442ZM313,336c-10.2-.093-32.432-1.8-40,1,2.014,5.6,1,15.717,1,23v48c0,5.287-.853,22.771,0,24v1h8c1.677-1.511,5.826-1,9-1l21,1c0.918-2.437,1.037-6.193,1-10-2.143-2.441-1.032-18.982-1-24v-6h1V375h-1Q312.5,355.5,313,336ZM198,369v64h38c1.86-5.076,1-14.279,1-21V369H198Zm-77,33v30c7.518,2.769,28.908,1.047,39,1,2.784-7.536,1.053-21.605,1-31H121Z"/>
  <path id="Color_Fill_2" data-name="Color Fill 2" class="cls-2" d="M388,432c-10.236,1.9-27.764,1.881-38,0-2.169-12.292-1-29.033-1-43,0-33.524,1.921-70.189-1-102-2.944-1.626-4.549-4.844-8-6-6.169-2.066-15.025,3.329-17-3h-1v-3c3.381-2.1,3.769-4.879,6-8l4-3v-2l2-1v-2l6-5v-2l4-3v-2l2-1v-1l2-1v-2l2-1,1-3h1v-2l3-2c3.794-5.34,8.029-14.15,16-15l9,8v2l2,1v2l2,1,1,3,3,2v2h1l1,3,2,1v2l4,3v2l2,1,1,3,5,4v2l3,2v2l3,2v1l2,1v2l2,1v2h1c0.923,1.363.7,1.761,1,4-1.139,1.139-.4,0-1,2-4.35,1.559-14.186-.143-18,2l-2,3-3,2c-5.471,8.132-3,28.079-3,41v66C389,406.405,389.88,421.234,388,432Zm-76-96c2.5,13.8,1,32.485,1,48s1.491,34.195-1,48c-10.236,1.9-27.764,1.881-38,0-2.5-13.8-1-32.485-1-48s-1.491-34.195,1-48C284.236,334.1,301.764,334.119,312,336Zm-76,34c1.574,8.61,1,20.8,1,31s0.565,22.386-1,31c-10.236,1.9-27.764,1.881-38,0-1.574-8.61-1-20.8-1-31s-0.565-22.386,1-31C208.236,368.1,225.764,368.119,236,370Zm-76,32c1.524,8.149,1.507,21.851,0,30-10.236,1.9-27.764,1.881-38,0-1.524-8.149-1.507-21.851,0-30C132.236,400.1,149.764,400.119,160,402Z"/>
</svg>
