<?xml version="1.0" encoding="UTF-8"?>
<svg width="80px" height="80px" viewBox="0 0 80 80" version="1.1" xmlns="http://www.w3.org/2000/svg" xmlns:xlink="http://www.w3.org/1999/xlink">
    <title>Icons/Membership/World</title>
    <g id="Icons/Membership/World" stroke="none" stroke-width="1" fill="none" fill-rule="evenodd">
        <g id="planet-earth" transform="translate(1.000000, 0.000000)">
            <path d="M40,80 C17.9440625,80 0,62.0559375 0,40 C0,34.4570312 1.11390625,29.08875 3.3103125,24.0445312 C5.9890625,17.8928125 10.22,12.4635937 15.545625,8.34375 C20.95375,4.16015625 27.3764063,1.42390625 34.1195313,0.4309375 C36.0554688,0.145 38.0342188,0 40,0 C47.72625,0 55.2251563,2.20734375 61.6860937,6.38375 C67.9778125,10.4507813 72.990625,16.1723437 76.1825,22.93 C78.7154687,28.2867187 80,34.0303125 80,40 C80,40.2590625 79.9978125,40.518125 79.9907812,40.7770313 C79.9907812,40.786875 79.990625,40.7964063 79.990625,40.8025 C79.9020312,45.4198437 79.0304687,49.9339062 77.3992188,54.2195313 C76.986875,55.305 76.5134375,56.4 75.9925,57.4732812 C75.98875,57.4810937 75.9848438,57.4890625 75.9807813,57.496875 L75.95375,57.5507813 C74.4434375,60.6445313 72.5153125,63.5578125 70.2328125,66.1907813 C69.4195313,67.1282813 68.0004688,67.2296875 67.0629688,66.416875 C66.1251563,65.6039063 66.0239063,64.1845313 66.836875,63.2470313 C68.8640625,60.9085938 70.5757813,58.3223438 71.9245313,55.56 L71.9551563,55.4985938 C72.4157813,54.5484375 72.8342188,53.580625 73.1982813,52.6221875 C74.6434375,48.8253125 75.4165625,44.8253125 75.496875,40.7325 C75.496875,40.7139063 75.4970313,40.6929688 75.4975,40.6795313 C75.50375,40.4529688 75.505625,40.2265625 75.505625,40 C75.505625,34.6998438 74.36625,29.6026563 72.1190625,24.850625 C66.2779687,12.4842188 53.6707812,4.494375 40,4.494375 C38.2529688,4.494375 36.4953125,4.623125 34.7753125,4.87703125 C22.7685938,6.64546875 12.2909375,14.6773438 7.4309375,25.8389063 C5.4825,30.31375 4.494375,35.0782813 4.494375,40 C4.494375,59.5779687 20.4220312,75.505625 40,75.505625 C45.1635938,75.505625 50.140625,74.423125 54.7929688,72.288125 C55.9210938,71.7701562 57.2551562,72.2651563 57.7725,73.393125 C58.2903125,74.52125 57.7954688,75.8551563 56.6675,76.3726563 C51.423125,78.7795313 45.8153125,80 40,80 Z" id="Path" fill="#037EF3"></path>
            <path d="M77.7528125,40 C77.7528125,40.2471875 77.750625,40.494375 77.74375,40.7415625 L77.74375,40.7595313 C77.6582813,45.2134375 76.8,49.4764063 75.29875,53.4201563 C74.9009375,54.4673438 74.4560938,55.4920313 73.970625,56.4920313 C73.9615625,56.51 73.9526563,56.5279688 73.9435938,56.5459375 C72.2671875,55.8470313 70.7728125,54.8132813 69.5414063,53.5301563 C67.9639063,51.8829688 66.8132813,49.8267188 66.2628125,47.5323438 L63.8785938,37.6245313 C63.7459375,37.0739063 63.4,36.5998438 62.9167187,36.303125 L60.7257812,34.9615625 C60.0359375,34.5390625 59.6426562,33.76375 59.7123437,32.959375 L59.8764063,31.0470313 C59.9326563,30.3885938 60.249375,29.7796875 60.755,29.3548438 L66.1032812,24.8514063 C66.6089063,24.424375 67.2628125,24.2176563 67.9234375,24.2739063 L74.1504688,23.8896875 C76.460625,28.7753125 77.7528125,34.2359375 77.7528125,40 Z" id="Path" fill="#C0DEFB"></path>
            <path d="M73.9426562,58.79375 C73.6539063,58.79375 73.3609375,58.7378125 73.0790625,58.6203125 C71.1242187,57.8054687 69.3884375,56.6165625 67.9201563,55.0864062 C66.0376563,53.1207812 64.7095313,50.690625 64.0776563,48.0570312 L61.7046875,38.1965625 L59.5520313,36.8785937 C58.1259375,36.0053125 57.329375,34.4295312 57.473125,32.76625 L57.6371875,30.8554687 C57.7432813,29.6125 58.3526563,28.4384375 59.309375,27.6348437 L64.6559375,23.1329687 C65.56,22.369375 66.7235938,21.9678125 67.9232813,22.023125 L74.0120313,21.6473437 C74.9264063,21.5898437 75.7889063,22.0985937 76.181875,22.9295312 C78.7154687,28.2867187 80,34.0303125 80,40 C80,40.2589062 79.9978125,40.5179687 79.9907812,40.776875 C79.9907812,40.7867187 79.990625,40.7964062 79.990625,40.8025 C79.9020312,45.4203125 79.0301563,49.934375 77.3992188,54.2195312 C76.9870313,55.305 76.5135937,56.4 75.9925,57.4732813 C75.98875,57.4810938 75.9848438,57.4890625 75.9807813,57.496875 L75.9514063,57.5557813 C75.5584375,58.3364063 74.7685938,58.79375 73.9426562,58.79375 Z M61.9573438,33.0809375 L64.0903125,34.3870312 C65.0901563,35.0007812 65.7898438,35.9634375 66.0632813,37.0989062 L68.4478125,47.0067187 C68.8945312,48.86875 69.8335938,50.5865625 71.164375,51.9759375 C71.6889063,52.5225 72.2623438,53.0078125 72.8798438,53.4285938 C72.99,53.159375 73.0960938,52.8904687 73.1979688,52.6223437 C74.643125,48.8254687 75.4164062,44.8254687 75.4965625,40.7320312 C75.4965625,40.7134375 75.4967188,40.6929687 75.4971875,40.6796875 C75.5034375,40.453125 75.5053125,40.2264062 75.5053125,39.9998437 C75.5053125,35.2085937 74.5740625,30.5832812 72.7351563,26.2285937 L68.0614063,26.516875 C67.9517188,26.5235937 67.841875,26.5223437 67.7326563,26.513125 L67.7096875,26.5121875 C67.6682813,26.5121875 67.6076563,26.521875 67.5526563,26.5685937 L62.201875,31.0740625 C62.15125,31.1165625 62.1203125,31.1759375 62.1148438,31.2382812 L61.9573438,33.0809375 Z" id="Shape" fill="#037EF3"></path>
            <path d="M38.6471875,42.5573438 C38.6471875,42.5573438 34.3326563,54.4203125 32.3932813,59.739375 C31.845,61.2404687 30.4179688,62.2359375 28.8246875,62.2359375 L28.7820313,62.2359375 C27.1640625,62.2201562 25.7370313,61.1796875 25.2225,59.645 L20.2696875,44.8203125 C20.1775,44.5439063 20.0315625,44.2921875 19.845,44.0765625 C19.6584375,43.8607813 19.4292188,43.6810938 19.1685938,43.5507812 C17.7326563,42.8339062 16.561875,39.8473438 16.561875,39.8473438 L16.045,35.5146875 C15.8967188,34.2876562 15.561875,33.10125 15.05625,31.9910938 C14.5484375,30.8809375 13.8720313,29.8473438 13.0428125,28.9326563 C11.4585938,27.184375 9.3934375,25.9460937 7.10578125,25.3753125 L6.45140625,25.2117188 C5.88375,25.0698438 5.5871875,24.4435938 5.836875,23.914375 C11.1054688,12.7435937 21.690625,4.57328125 34.330625,2.67125 C34.4,2.6609375 34.4685938,2.69640625 34.4998438,2.759375 L37.3079688,8.37984375 C37.4607813,8.68328125 37.539375,9.0203125 37.539375,9.3596875 L37.539375,9.806875 C37.539375,10.5709375 37.1415625,11.2810937 36.49,11.67875 L34.6921875,12.7776562 C34.2135938,13.0698437 33.8651562,13.5326562 33.7192187,14.0742187 L31.4203125,22.505625 C31.2832813,23.0067187 30.9865625,23.43375 30.5932813,23.7326562 C30.2023438,24.0315625 29.7123437,24.2045313 29.1932812,24.2045313 C28.9078125,24.2045313 28.6225,24.1528125 28.3573438,24.0495313 L27.0157812,23.5417188 C26.0471875,23.1776562 24.6090625,23.3754688 23.2248437,23.7484375 C21.4607813,24.2248438 20.3282812,25.8114063 20.3282812,27.5170313 C20.3282812,27.9979688 20.4159375,28.485625 20.606875,28.9620312 C21.0495312,30.0676562 21.9709375,30.9103125 23.1125,31.2496875 C24.6428125,31.7035937 25.973125,35.18 30.1867188,35.18 C30.1867188,35.18 37.6092187,34.2384375 38.6204688,36.535 C39.45625,38.4314063 39.355,40.61125 38.6471875,42.5573438 Z" id="Path" fill="#C0DEFB"></path>
            <path d="M28.8246875,64.483125 L28.7820313,64.483125 C26.1882813,64.4579688 23.910625,62.800625 23.091875,60.359375 L18.1445313,45.5510938 C16.1067188,44.51875 14.8171875,41.5540625 14.4696875,40.6675 C14.3998438,40.4895313 14.353125,40.3032813 14.3303125,40.1135938 L13.8134375,35.7809375 C13.6939063,34.7917188 13.42375,33.8290625 13.0109375,32.9225 C12.5954688,32.014375 12.0454688,31.17875 11.3776563,30.4420313 C10.0870313,29.0179688 8.421875,28.02 6.56140625,27.5557813 L5.9059375,27.3920313 C4.9803125,27.160625 4.21515625,26.533125 3.80640625,25.670625 C3.39765625,24.808125 3.39671875,23.8184375 3.80390625,22.955625 C9.51453125,10.8482813 20.8014063,2.43453125 33.99625,0.44921875 C34.1145313,0.43140625 34.2351563,0.4225 34.3546875,0.4225 C35.2732813,0.4225 36.0992188,0.9328125 36.51,1.754375 L39.3182813,7.37546875 C39.6234375,7.98125 39.7865625,8.6696875 39.7865625,9.35953125 L39.7865625,9.80671875 C39.7865625,11.3442188 38.9720313,12.7965625 37.6604688,13.596875 L35.8820313,14.6839063 L33.5882813,23.0967188 C33.3248438,24.0601563 32.7442188,24.9207813 31.9528125,25.521875 C31.1701563,26.12 30.1882813,26.4517188 29.1932813,26.4517188 C28.6223438,26.4517188 28.06625,26.3479688 27.5410938,26.143125 L26.22,25.643125 C26.219375,25.6429688 26.0901563,25.5957813 25.7685938,25.5957813 C25.4203125,25.5957813 24.7976563,25.6517188 23.8095313,25.9179688 C23.0832813,26.1142188 22.5751563,26.7717188 22.5751563,27.516875 C22.5751563,27.7267188 22.6145313,27.93125 22.6921875,28.1254688 C22.8815625,28.5982813 23.2676562,28.9515625 23.7521875,29.095625 C24.814375,29.410625 25.5675,30.1670313 26.2957813,30.8982813 C27.3151563,31.921875 28.2789063,32.8896875 30.0660938,32.93125 C30.5260938,32.879375 31.8921875,32.7415625 33.4410938,32.7415625 C36.00125,32.7415625 39.5365625,33.0409375 40.6764062,35.629375 C41.694375,37.93875 41.7235937,40.6723438 40.7584375,43.325625 C40.7584375,43.325625 36.4435937,55.1896875 34.5039062,60.5092188 C33.63625,62.8865625 31.35375,64.483125 28.8246875,64.483125 Z M20.1885938,41.5482813 C20.708125,41.8104687 21.1640625,42.16625 21.5448438,42.6067187 C21.9289063,43.0507812 22.2171875,43.5565625 22.4014063,44.1096875 L27.3540625,58.933125 C27.5632813,59.5573438 28.1464063,59.9828125 28.8042188,59.989375 L28.8248438,59.989375 C29.4739063,59.989375 30.0596875,59.5792188 30.2826563,58.9689063 C32.22125,53.6514063 36.5354688,41.7898438 36.5354688,41.7898438 C37.0707813,40.318125 37.1098438,38.8596875 36.6509375,37.6539063 C36.3826563,37.529375 35.5290625,37.2365625 33.4417188,37.2365625 C31.86875,37.2365625 30.481875,37.4082813 30.4679688,37.41 C30.3751563,37.4217188 30.2801563,37.4278125 30.1865625,37.4278125 C26.4551563,37.4278125 24.3620313,35.3259375 23.1115625,34.0703125 C22.8653125,33.8229688 22.535,33.49125 22.3717188,33.3734375 C20.6095313,32.8170313 19.2096875,31.5192188 18.5207813,29.7976563 C18.229375,29.070625 18.0809375,28.3032813 18.0809375,27.5176563 C18.0809375,24.74625 19.9551563,22.304375 22.6389063,21.5796875 C23.8146875,21.2628125 24.8675,21.1021875 25.76875,21.1021875 C26.5265625,21.1021875 27.2121875,21.2154688 27.8065625,21.4390625 L29.1932813,21.958125 C29.21375,21.958125 29.225625,21.9503125 29.22875,21.9479688 C29.2385938,21.9403125 29.2476563,21.9314063 29.2525,21.9135938 L31.5509375,13.4832813 C31.8464063,12.3882813 32.5467188,11.4546875 33.5210938,10.8596875 L35.2920313,9.7771875 L35.2920313,9.373125 L33.1814063,5.14890625 C22.6267188,7.19625 13.5985938,13.915 8.57421875,23.4589063 C10.928125,24.2179688 13.03375,25.57625 14.7079688,27.4235938 C15.6857813,28.5021875 16.490625,29.7245313 17.0998438,31.05625 C17.7054688,32.3860938 18.1007813,33.794375 18.2760938,35.2453125 L18.7570313,39.2746875 C19.1834375,40.2610938 19.8425,41.3173438 20.1885938,41.5482813 Z" id="Shape" fill="#037EF3"></path>
        </g>
    </g>
</svg>